
<svg 
 xmlns="http://www.w3.org/2000/svg"
 xmlns:xlink="http://www.w3.org/1999/xlink"
 width="68px" height="45px">
<path fill-rule="evenodd"  fill="rgb(208, 33, 57)"
 d="M68.000,29.204 C68.000,37.905 61.067,44.984 52.546,44.984 C44.546,44.984 37.869,38.997 37.091,31.034 L30.909,31.034 C30.131,38.997 23.454,44.984 15.455,44.984 C6.933,44.984 -0.000,37.905 -0.000,29.204 L-0.000,24.842 C-0.000,24.410 1.814,19.695 1.382,20.167 L16.837,0.779 C17.702,-0.184 19.169,-0.250 20.112,0.634 C21.055,1.517 21.119,3.015 20.254,3.978 L7.652,20.189 L26.273,20.189 L41.727,20.189 L60.604,20.189 L47.674,3.893 C46.854,2.890 46.987,1.397 47.971,0.560 C48.955,-0.277 50.416,-0.141 51.235,0.863 L66.690,20.250 C66.227,19.694 68.000,24.463 68.000,24.842 L68.000,29.204 ZM26.273,24.842 L4.636,24.842 L4.636,29.204 C4.636,35.304 9.480,40.250 15.455,40.250 C21.429,40.250 26.273,35.304 26.273,29.204 L26.273,24.842 ZM37.091,24.842 L30.909,24.842 L30.909,26.393 L37.091,26.393 L37.091,24.842 ZM63.364,24.842 L41.727,24.842 L41.727,29.204 C41.727,35.304 46.571,40.250 52.546,40.250 C58.520,40.250 63.364,35.304 63.364,29.204 L63.364,24.842 ZM53.108,39.390 C52.920,39.438 52.730,39.461 52.544,39.461 C51.505,39.461 50.559,38.742 50.297,37.669 C49.987,36.405 50.734,35.124 51.969,34.801 C52.429,34.676 56.409,33.468 56.409,29.204 C56.409,27.897 57.447,26.837 58.727,26.837 C60.007,26.837 61.045,27.897 61.045,29.204 C61.045,35.659 55.854,38.689 53.108,39.390 ZM16.017,39.390 C15.829,39.438 15.639,39.461 15.453,39.461 C14.414,39.461 13.468,38.742 13.206,37.669 C12.896,36.405 13.643,35.124 14.878,34.801 C15.338,34.676 19.318,33.468 19.318,29.204 C19.318,27.897 20.357,26.837 21.636,26.837 C22.916,26.837 23.954,27.897 23.954,29.204 C23.954,35.659 18.763,38.689 16.017,39.390 Z"/>
</svg>