<svg 
 xmlns="http://www.w3.org/2000/svg"
 xmlns:xlink="http://www.w3.org/1999/xlink"
 width="55px" height="64px">
<path fill-rule="evenodd"  fill="rgb(208, 33, 57)"
 d="M38.031,58.690 L29.629,63.439 C28.968,63.813 28.234,64.000 27.500,64.000 C26.766,64.000 26.032,63.813 25.371,63.439 L16.969,58.690 C6.502,52.773 0.000,41.600 0.000,29.531 L0.000,10.182 C0.000,9.208 0.382,5.838 5.295,3.370 C9.745,1.134 17.216,-0.000 27.500,-0.000 C49.340,-0.000 54.023,5.716 54.870,9.123 C54.956,9.469 55.000,9.825 55.000,10.182 L55.000,29.531 C55.000,41.600 48.498,52.773 38.031,58.690 ZM50.658,10.182 C50.658,10.182 49.211,4.363 27.500,4.363 C4.342,4.363 4.342,10.182 4.342,10.182 L4.342,29.531 C4.342,40.042 9.983,49.734 19.098,54.886 L27.500,59.636 L35.902,54.886 C45.017,49.734 50.658,40.042 50.658,29.531 L50.658,10.182 ZM26.053,40.000 C25.497,40.000 24.942,39.787 24.518,39.361 L14.386,29.179 C13.538,28.328 13.538,26.945 14.386,26.094 C15.234,25.241 16.608,25.241 17.456,26.094 L26.053,34.733 L40.439,20.275 C41.287,19.423 42.661,19.423 43.509,20.275 C44.357,21.127 44.357,22.509 43.509,23.361 L27.587,39.361 C27.164,39.787 26.608,40.000 26.053,40.000 Z"/>
</svg>