<svg 
 xmlns="http://www.w3.org/2000/svg"
 xmlns:xlink="http://www.w3.org/1999/xlink"
 width="55px" height="55px">
<path fill-rule="evenodd"  fill="rgb(208, 33, 57)"
 d="M52.788,47.436 C49.319,49.319 49.319,49.319 47.436,52.787 C46.696,54.151 45.270,55.000 43.718,55.000 C42.167,55.000 40.740,54.151 40.000,52.787 C38.117,49.319 38.117,49.319 34.649,47.436 C33.285,46.696 32.436,45.269 32.436,43.718 C32.436,42.166 33.285,40.740 34.649,39.999 C38.117,38.117 38.117,38.117 40.000,34.648 C40.740,33.285 42.167,32.436 43.718,32.436 C45.270,32.436 46.696,33.285 47.436,34.648 C49.319,38.117 49.319,38.117 52.788,39.999 C54.151,40.740 55.000,42.166 55.000,43.718 C55.000,45.269 54.151,46.696 52.788,47.436 ZM43.718,36.666 C41.388,40.959 40.959,41.388 36.667,43.718 C40.959,46.047 41.388,46.477 43.718,50.769 C46.048,46.477 46.477,46.047 50.769,43.718 C46.477,41.388 46.048,40.959 43.718,36.666 ZM40.096,24.872 C30.505,30.078 30.078,30.504 24.873,40.095 C24.133,41.458 22.706,42.307 21.154,42.307 C19.603,42.307 18.176,41.458 17.436,40.095 C12.231,30.504 11.804,30.078 2.213,24.870 C0.851,24.131 0.002,22.705 0.001,21.155 C-0.000,19.605 0.847,18.179 2.208,17.437 C11.782,12.220 12.207,11.794 17.368,2.222 C18.105,0.857 19.529,0.004 21.080,-0.000 C21.084,-0.000 21.088,-0.000 21.092,-0.000 C22.639,-0.000 24.063,0.844 24.805,2.202 C30.057,11.814 30.486,12.241 40.089,17.432 C41.455,18.170 42.307,19.597 42.308,21.150 C42.309,22.703 41.460,24.131 40.096,24.872 ZM21.092,4.231 C15.541,14.525 14.497,15.558 4.232,21.152 C14.533,26.745 15.563,27.774 21.155,38.077 C26.746,27.775 27.776,26.745 38.077,21.154 C27.740,15.566 26.725,14.538 21.092,4.231 Z"/>
</svg>