<svg 
 xmlns="http://www.w3.org/2000/svg"
 xmlns:xlink="http://www.w3.org/1999/xlink"
 width="55px" height="54px">
<path fill-rule="evenodd"  fill="rgb(208, 33, 57)"
 d="M55.000,24.300 C55.000,20.577 51.991,17.550 48.293,17.550 L46.952,17.550 L38.902,17.550 L38.902,8.100 C38.902,4.075 36.599,-0.000 32.195,-0.000 C27.792,-0.000 25.488,4.075 25.488,8.100 L25.488,11.822 L20.644,16.695 L14.452,18.714 C13.851,17.240 12.413,16.200 10.732,16.200 L4.024,16.200 C1.802,16.200 0.000,18.013 0.000,20.250 L0.000,49.950 C0.000,52.187 1.802,54.000 4.024,54.000 L10.732,54.000 C12.954,54.000 14.756,52.187 14.756,49.950 L14.756,49.417 L20.572,53.320 C21.233,53.763 22.010,54.000 22.805,54.000 L46.952,54.000 L48.293,54.000 C51.991,54.000 55.000,50.972 55.000,47.250 L55.000,45.900 C55.000,45.162 54.804,44.470 54.461,43.875 C54.804,43.279 55.000,42.587 55.000,41.850 L55.000,37.800 C55.000,37.062 54.804,36.370 54.461,35.775 C54.804,35.179 55.000,34.487 55.000,33.750 L55.000,29.700 C55.000,28.962 54.804,28.271 54.461,27.675 C54.804,27.079 55.000,26.387 55.000,25.650 L55.000,24.300 ZM10.732,49.950 L4.024,49.950 L4.024,20.250 L10.732,20.250 L10.732,49.950 ZM50.976,25.650 L48.964,25.650 C47.853,25.650 46.952,26.557 46.952,27.675 C46.952,28.793 47.853,29.700 48.964,29.700 L50.976,29.700 L50.976,33.750 L48.964,33.750 C47.853,33.750 46.952,34.656 46.952,35.775 C46.952,36.893 47.853,37.800 48.964,37.800 L50.976,37.800 L50.976,41.850 L48.964,41.850 C47.853,41.850 46.952,42.756 46.952,43.875 C46.952,44.993 47.853,45.900 48.964,45.900 L50.976,45.900 L50.976,47.250 C50.976,48.741 49.774,49.950 48.293,49.950 L46.952,49.950 L22.805,49.950 L14.756,44.550 L14.756,22.872 L22.805,20.248 L29.512,13.500 L29.512,8.100 C29.512,8.100 29.512,4.050 32.195,4.050 C34.878,4.050 34.878,8.100 34.878,8.100 L34.878,21.600 L46.952,21.600 L48.293,21.600 C49.774,21.600 50.976,22.809 50.976,24.300 L50.976,25.650 Z"/>
</svg>